<svg width="670" height="401" viewBox="0 0 670 401" fill="none" xmlns="http://www.w3.org/2000/svg">
<g clip-path="url(#clip0_69_498)">
<path d="M215.324 260.946V77.2554H273.804V260.946H215.324ZM244.624 55.8487C236.412 55.8487 229.356 53.138 223.456 47.7166C217.556 42.2154 214.606 35.5981 214.606 27.8646C214.606 20.2108 217.556 13.6732 223.456 8.25175C229.356 2.75058 236.412 0 244.624 0C252.915 0 259.971 2.75058 265.791 8.25175C271.691 13.6732 274.641 20.2108 274.641 27.8646C274.641 35.5981 271.691 42.2154 265.791 47.7166C259.971 53.138 252.915 55.8487 244.624 55.8487Z" fill="black"/>
<path d="M192.899 77.248L129.875 260.939H62.9045L0 77.248H61.589L95.4331 203.775H97.3465L131.31 77.248H192.899Z" fill="black"/>
<path d="M369.505 108.701H370.701C373.093 103.12 376.481 97.7388 380.866 92.5566C385.331 87.3745 390.991 83.1487 397.847 79.8799C404.784 76.5314 413.076 74.8574 422.722 74.8574C435.479 74.8574 447.398 78.2053 458.48 84.9023C469.642 91.5994 478.651 101.925 485.508 115.877C488.979 122.94 491.568 130.986 493.282 140.011C495.125 132.907 497.683 126.259 500.953 120.066C508.447 105.795 519.011 94.7133 532.644 86.8203C546.278 78.8477 562.343 74.8613 580.84 74.8613C593.915 74.8614 605.874 76.8939 616.717 80.96C627.559 85.026 636.927 91.0459 644.82 99.0186C652.713 106.991 658.852 116.837 663.237 128.557C667.622 140.197 669.814 153.552 669.814 168.62V183.21H547.354V184.765C547.354 192.259 548.829 198.837 551.779 204.497C554.729 210.078 558.914 214.423 564.336 217.532C569.757 220.642 576.215 222.196 583.71 222.196C588.892 222.196 593.596 221.479 597.821 220.044C602.047 218.609 605.674 216.495 608.704 213.705C611.733 210.915 614.005 207.487 615.52 203.421L669.217 204.976C666.984 217.014 662.081 227.498 654.507 236.428C647.012 245.277 637.166 252.173 624.969 257.116C612.77 261.98 598.658 264.412 582.634 264.412C563.419 264.412 546.836 260.625 532.884 253.051C519.011 245.397 508.328 234.514 500.834 220.402C497.46 213.945 494.856 206.934 493.017 199.371C491.368 207.492 488.985 214.86 485.866 221.475C479.328 235.506 470.479 246.031 459.317 253.047C448.235 260.063 435.917 263.57 422.364 263.57C413.116 263.57 405.103 262.056 398.326 259.026C391.549 255.997 385.849 252.01 381.224 247.067C376.68 242.124 373.172 236.822 370.701 231.161H368.907V260.939H311.025V16.0186H369.505V108.701ZM402.153 120.541C394.978 120.541 388.878 122.494 383.855 126.4C378.833 130.307 374.966 135.889 372.256 143.144C369.625 150.399 368.308 159.049 368.308 169.094C368.308 178.98 369.625 187.591 372.256 194.926C374.966 202.261 378.833 207.961 383.855 212.027C388.958 216.014 395.057 218.007 402.153 218.007C409.328 218.007 415.427 216.014 420.45 212.027C425.473 207.961 429.26 202.261 431.811 194.926C434.442 187.591 435.758 178.98 435.758 169.094C435.758 159.208 434.442 150.637 431.811 143.382C429.26 136.127 425.473 130.507 420.45 126.521C415.507 122.534 409.408 120.541 402.153 120.541ZM582.035 117.076C575.498 117.076 569.638 118.551 564.456 121.501C559.274 124.371 555.167 128.318 552.137 133.341C549.262 138.032 547.68 143.334 547.39 149.246H615.401C615.321 143.027 613.846 137.486 610.976 132.623C608.106 127.76 604.159 123.972 599.136 121.262C594.193 118.471 588.493 117.076 582.035 117.076Z" fill="black"/>
<path d="M495.487 207.237L498.06 200.037C501.567 190.227 510.884 175.652 522.796 172.764L531.539 170.644C533.287 170.22 533.287 168.181 531.539 167.757L522.796 165.638C510.884 162.75 501.567 148.175 498.06 138.365L495.487 131.165C494.972 129.725 492.496 129.725 491.981 131.165L489.407 138.365C485.901 148.175 476.585 162.75 464.672 165.638L455.929 167.757C454.181 168.181 454.181 170.22 455.929 170.644L464.672 172.764C476.585 175.652 485.901 190.227 489.407 200.037L491.981 207.237C492.496 208.676 494.972 208.676 495.487 207.237Z" fill="white"/>
<path d="M354.277 401H314.64V297.984H353.874C364.471 297.984 373.626 300.046 381.339 304.171C389.085 308.262 395.054 314.164 399.246 321.877C403.471 329.556 405.584 338.761 405.584 349.492C405.584 360.223 403.488 369.445 399.296 377.157C395.104 384.837 389.169 390.739 381.489 394.863C373.81 398.954 364.739 401 354.277 401ZM342.607 377.258H353.271C358.368 377.258 362.711 376.436 366.299 374.793C369.92 373.15 372.67 370.317 374.548 366.292C376.459 362.268 377.415 356.668 377.415 349.492C377.415 342.316 376.443 336.716 374.498 332.692C372.586 328.667 369.769 325.834 366.047 324.191C362.358 322.548 357.831 321.726 352.466 321.726H342.607V377.258ZM456.148 402.408C447.765 402.408 440.589 400.748 434.62 397.429C428.651 394.075 424.073 389.414 420.888 383.445C417.702 377.442 416.109 370.484 416.109 362.57C416.109 354.656 417.702 347.715 420.888 341.746C424.073 335.743 428.651 331.082 434.62 327.762C440.589 324.409 447.765 322.732 456.148 322.732C464.532 322.732 471.708 324.409 477.677 327.762C483.646 331.082 488.224 335.743 491.409 341.746C494.595 347.715 496.188 354.656 496.188 362.57C496.188 370.484 494.595 377.442 491.409 383.445C488.224 389.414 483.646 394.075 477.677 397.429C471.708 400.748 464.532 402.408 456.148 402.408ZM456.35 381.886C458.697 381.886 460.726 381.098 462.436 379.522C464.146 377.945 465.471 375.699 466.41 372.781C467.349 369.864 467.818 366.393 467.818 362.369C467.818 358.311 467.349 354.841 466.41 351.957C465.471 349.039 464.146 346.792 462.436 345.216C460.726 343.64 458.697 342.852 456.35 342.852C453.868 342.852 451.739 343.64 449.961 345.216C448.184 346.792 446.826 349.039 445.887 351.957C444.948 354.841 444.479 358.311 444.479 362.369C444.479 366.393 444.948 369.864 445.887 372.781C446.826 375.699 448.184 377.945 449.961 379.522C451.739 381.098 453.868 381.886 456.35 381.886ZM544.678 402.408C536.294 402.408 529.118 400.748 523.149 397.429C517.18 394.075 512.603 389.414 509.417 383.445C506.231 377.442 504.638 370.484 504.638 362.57C504.638 354.656 506.231 347.715 509.417 341.746C512.603 335.743 517.18 331.082 523.149 327.762C529.118 324.409 536.294 322.732 544.678 322.732C552.257 322.732 558.812 324.107 564.345 326.857C569.912 329.573 574.221 333.429 577.273 338.426C580.324 343.389 581.867 349.224 581.9 355.93H556.146C555.778 351.873 554.604 348.788 552.625 346.675C550.68 344.529 548.165 343.456 545.08 343.456C542.666 343.456 540.553 344.16 538.742 345.569C536.932 346.943 535.523 349.039 534.517 351.856C533.511 354.639 533.008 358.144 533.008 362.369C533.008 366.594 533.511 370.115 534.517 372.932C535.523 375.715 536.932 377.811 538.742 379.22C540.553 380.595 542.666 381.282 545.08 381.282C547.126 381.282 548.937 380.813 550.513 379.874C552.089 378.901 553.363 377.493 554.336 375.648C555.342 373.77 555.945 371.49 556.146 368.807H581.9C581.8 375.615 580.241 381.55 577.222 386.614C574.204 391.644 569.929 395.534 564.396 398.284C558.896 401.034 552.324 402.408 544.678 402.408ZM663.979 348.888H638.426C638.292 347.312 637.739 345.954 636.766 344.814C635.794 343.674 634.536 342.802 632.994 342.198C631.484 341.561 629.808 341.243 627.963 341.243C625.583 341.243 623.537 341.679 621.827 342.55C620.117 343.422 619.278 344.663 619.312 346.273C619.278 347.413 619.764 348.469 620.77 349.442C621.81 350.414 623.805 351.169 626.756 351.705L642.45 354.522C650.364 355.964 656.249 358.395 660.106 361.816C663.996 365.203 665.957 369.746 665.991 375.447C665.957 380.947 664.314 385.725 661.061 389.783C657.842 393.807 653.432 396.926 647.832 399.139C642.266 401.319 635.911 402.408 628.768 402.408C616.964 402.408 607.726 399.994 601.052 395.165C594.413 390.336 590.707 383.965 589.936 376.051H617.501C617.87 378.499 619.077 380.393 621.123 381.735C623.202 383.043 625.817 383.697 628.969 383.697C631.518 383.697 633.614 383.261 635.257 382.389C636.934 381.517 637.789 380.276 637.822 378.666C637.789 377.191 637.051 376.017 635.609 375.145C634.201 374.274 631.987 373.569 628.969 373.033L615.288 370.618C607.407 369.243 601.505 366.628 597.582 362.771C593.658 358.915 591.713 353.952 591.747 347.882C591.713 342.517 593.122 337.973 595.972 334.251C598.856 330.495 602.964 327.645 608.296 325.7C613.661 323.721 620.016 322.732 627.36 322.732C638.527 322.732 647.329 325.046 653.768 329.673C660.24 334.301 663.643 340.706 663.979 348.888Z" fill="black"/>
</g>
<defs>
<clipPath id="clip0_69_498">
<rect width="670" height="401" fill="white"/>
</clipPath>
</defs>
</svg>
